HIERARCHY
ROOT Hips
{
	OFFSET 0.000000 0.000000 0.000000
	CHANNELS 6 Xposition Yposition Zposition Xrotation Yrotation Zrotation
	JOINT LeftUpLeg_virtual
	{
		OFFSET 0.000000 0.000000 0.000000
		CHANNELS 3 Xrotation Yrotation Zrotation
		JOINT LeftUpLeg
		{
			OFFSET 15.427100 -6.655098 0.678600
			CHANNELS 3 Xrotation Yrotation Zrotation
			JOINT LeftLeg
			{
				OFFSET 4.081073 -39.591068 13.024000
				CHANNELS 3 Xrotation Yrotation Zrotation
				JOINT LeftFoot
				{
					OFFSET -4.081074 -37.707932 -15.979700
					CHANNELS 3 Xrotation Yrotation Zrotation
					JOINT LeftToeBase
					{
						OFFSET 5.346399 -15.068900 20.645000
						CHANNELS 3 Xrotation Yrotation Zrotation
						JOINT LeftToe_End
						{
							OFFSET 2.754700 0.931300 11.300900
							CHANNELS 3 Xrotation Yrotation Zrotation
							End Site
							{
								OFFSET 0 0 0
							}
						}
					}
				}
			}
		}
	}
	JOINT RightUpLeg_virtual
	{
		OFFSET 0.000000 0.000000 0.000000
		CHANNELS 3 Xrotation Yrotation Zrotation
		JOINT RightUpLeg
		{
			OFFSET -15.569500 -6.655098 0.678600
			CHANNELS 3 Xrotation Yrotation Zrotation
			JOINT RightLeg
			{
				OFFSET -4.081825 -39.591045 13.023800
				CHANNELS 3 Xrotation Yrotation Zrotation
				JOINT RightFoot
				{
					OFFSET 4.081824 -37.707954 -15.979600
					CHANNELS 3 Xrotation Yrotation Zrotation
					JOINT RightToeBase
					{
						OFFSET -5.346400 -15.068900 20.645000
						CHANNELS 3 Xrotation Yrotation Zrotation
						JOINT RightToe_End
						{
							OFFSET -2.754700 0.931300 11.300900
							CHANNELS 3 Xrotation Yrotation Zrotation
							End Site
							{
								OFFSET 0 0 0
							}
						}
					}
				}
			}
		}
	}
	JOINT Spine_virtual
	{
		OFFSET 0.000000 0.000000 0.000000
		CHANNELS 3 Xrotation Yrotation Zrotation
		JOINT Spine
		{
			OFFSET -0.279200 12.230698 -2.892100
			CHANNELS 3 Xrotation Yrotation Zrotation
			JOINT Spine1
			{
				OFFSET -0.232667 10.192268 -1.242267
				CHANNELS 3 Xrotation Yrotation Zrotation
				JOINT Spine1_split
				{
					OFFSET -0.232667 10.192268 -1.242267
					CHANNELS 3 Xrotation Yrotation Zrotation
					JOINT Spine2
					{
						OFFSET -0.232667 10.192268 -1.242267
						CHANNELS 3 Xrotation Yrotation Zrotation
						JOINT Neck_virtual
						{
							OFFSET 0.000000 0.000000 0.000000
							CHANNELS 3 Xrotation Yrotation Zrotation
							JOINT Neck
							{
								OFFSET -0.418800 17.814194 8.416900
								CHANNELS 3 Xrotation Yrotation Zrotation
								JOINT Head
								{
									OFFSET 0.000000 7.031097 3.806800
									CHANNELS 3 Xrotation Yrotation Zrotation
									JOINT HeadTop_End
									{
										OFFSET 0.000000 24.646606 12.978600
										CHANNELS 3 Xrotation Yrotation Zrotation
										End Site
										{
											OFFSET 0 0 0
										}
									}
								}
							}
						}
						JOINT LeftShoulder_virtual
						{
							OFFSET 0.000000 0.000000 0.000000
							CHANNELS 3 Xrotation Yrotation Zrotation
							JOINT LeftShoulder
							{
								OFFSET 8.476499 7.247704 -3.868750
								CHANNELS 3 Xrotation Yrotation Zrotation
								JOINT LeftShoulder_split
								{
									OFFSET 8.476499 7.247704 -3.868750
									CHANNELS 3 Xrotation Yrotation Zrotation
									JOINT LeftArm
									{
										OFFSET 9.308998 -2.777710 0.208600
										CHANNELS 3 Xrotation Yrotation Zrotation
										JOINT LeftForeArm
										{
											OFFSET 29.972298 0.000000 0.000000
											CHANNELS 3 Xrotation Yrotation Zrotation
											JOINT LeftHand
											{
												OFFSET 26.026505 0.000000 0.000000
												CHANNELS 3 Xrotation Yrotation Zrotation
												End Site
												{
													OFFSET 0 0 0
												}
											}
										}
									}
								}
							}
						}
						JOINT RightShoulder_virtual
						{
							OFFSET 0.000000 0.000000 0.000000
							CHANNELS 3 Xrotation Yrotation Zrotation
							JOINT RightShoulder
							{
								OFFSET -7.570500 7.247704 -3.868750
								CHANNELS 3 Xrotation Yrotation Zrotation
								JOINT RightShoulder_split
								{
									OFFSET -7.570500 7.247704 -3.868750
									CHANNELS 3 Xrotation Yrotation Zrotation
									JOINT RightArm
									{
										OFFSET -9.308998 -2.777710 0.208500
										CHANNELS 3 Xrotation Yrotation Zrotation
										JOINT RightForeArm
										{
											OFFSET -29.972300 0.000000 0.000000
											CHANNELS 3 Xrotation Yrotation Zrotation
											JOINT RightHand
											{
												OFFSET -26.026505 0.000000 0.000000
												CHANNELS 3 Xrotation Yrotation Zrotation
												End Site
												{
													OFFSET 0 0 0
												}
											}
										}
									}
								}
							}
						}
					}
				}
			}
		}
	}
}
MOTION
Frames: 10
Frame Time: 0.03333333
-0.032502 96.429108 -1.103474 0.000000 0.000000 0.000000 -0.317001 -0.851759 0.675922 -7.523579 13.585272 7.612376 11.094203 -9.579876 0.494950 -4.292928 -0.075992 -6.416081 -0.641578 0.000002 0.000001 0.000000 0.000000 0.000000 -0.317001 -0.851759 0.675922 -6.203050 -9.990945 -12.602304 9.628021 6.402250 2.586144 -4.290071 -0.585185 7.722388 -0.000064 0.000003 -0.000002 0.000000 0.000000 0.000000 -0.317001 -0.851759 0.675922 0.600834 0.532850 0.325349 0.948881 0.543752 -0.036076 0.000000 0.000000 0.000000 0.000000 0.000000 0.000000 0.949055 0.535715 -0.036774 1.759489 -1.272664 -0.666066 -4.887639 -8.012350 2.592187 0.000000 0.000000 0.000000 0.949055 0.535715 -0.036774 0.691656 -2.499305 -11.191560 0.000000 0.000000 0.000000 5.273946 -17.247124 -62.895292 -0.000008 -21.850197 0.000004 0.000000 0.000000 0.000000 0.949055 0.535715 -0.036774 0.450398 7.851257 13.847201 0.000000 0.000000 0.000000 5.786520 9.805978 61.054938 -0.000004 23.253212 0.000009 0.000000 0.000000 0.000000 
-0.034777 96.433983 -1.037880 0.000000 0.000000 0.000000 -0.317006 -0.888445 0.675777 -7.453983 13.603468 7.612727 11.066018 -9.582603 0.493809 -4.331761 -0.042913 -6.418973 -0.655507 0.000002 0.000001 0.000000 0.000000 0.000000 -0.317006 -0.888445 0.675777 -6.155742 -9.977091 -12.599191 9.603683 6.398316 2.574285 -4.312210 -0.585773 7.739680 -0.000036 0.000000 -0.000004 0.000000 0.000000 0.000000 -0.317006 -0.888445 0.675777 0.600824 0.536445 0.303991 0.948881 0.543752 -0.047614 0.000000 0.000000 0.000000 0.000000 0.000000 0.000000 0.949055 0.535715 -0.042374 1.780576 -1.212659 -0.622516 -4.885158 -7.647346 2.553905 0.000000 0.000000 0.000000 0.949055 0.535715 -0.042374 0.692010 -2.516156 -11.214497 0.000000 0.000000 0.000000 5.525727 -17.246016 -62.798849 -0.000001 -22.198151 -0.000026 0.000000 0.000000 0.000000 0.949055 0.535715 -0.042374 0.449467 7.849632 13.857039 0.000000 0.000000 0.000000 6.043053 9.889819 61.153778 0.000003 23.361530 -0.000023 0.000000 0.000000 0.000000 
-0.037557 96.388969 -0.975609 0.000000 0.000000 0.000000 -0.311881 -0.902725 0.659384 -7.477152 13.595284 7.644980 11.200731 -9.585713 0.499423 -4.451268 -0.027484 -6.396615 -0.659548 -0.000002 -0.000000 0.000000 0.000000 0.000000 -0.311881 -0.902725 0.659384 -6.164268 -9.910958 -12.574413 9.739947 6.345948 2.529330 -4.425699 -0.607965 7.772841 -0.000116 -0.000001 -0.000004 0.000000 0.000000 0.000000 -0.311881 -0.902725 0.659384 0.609952 0.550227 0.295873 0.963187 0.543752 -0.069053 0.000000 0.000000 0.000000 0.000000 0.000000 0.000000 0.963427 0.544779 -0.063332 1.815913 -1.132039 -0.633814 -5.016607 -7.264909 2.573067 0.000000 0.000000 0.000000 0.963427 0.544779 -0.063332 0.687646 -2.578771 -11.358227 0.000000 0.000000 0.000000 5.493330 -17.548537 -62.451158 -0.000009 -22.647002 -0.000028 0.000000 0.000000 0.000000 0.963427 0.544779 -0.063332 0.440788 7.832457 14.103893 0.000000 0.000000 0.000000 6.457135 10.074930 60.890460 -0.000002 23.759037 -0.000011 0.000000 0.000000 0.000000 
-0.027449 96.209839 -0.991009 0.000000 0.000000 0.000000 -0.179848 -0.871878 0.576164 -7.960528 13.410930 7.758086 11.851217 -9.583751 0.585718 -4.753932 0.072986 -6.389566 -0.610959 0.000003 0.000001 0.000000 0.000000 0.000000 -0.179848 -0.871878 0.576164 -6.515874 -9.739285 -12.509766 10.260988 6.259381 2.452831 -4.682344 -0.639435 7.822397 -0.000015 -0.000003 -0.000005 0.000000 0.000000 0.000000 -0.179848 -0.871878 0.576164 0.630976 0.582289 0.341670 0.987531 0.553731 -0.090297 0.000000 0.000000 0.000000 0.000000 0.000000 0.000000 0.987945 0.554976 -0.083196 1.919357 -1.037445 -0.702096 -5.699608 -6.953683 2.772632 0.000000 0.000000 0.000000 0.987945 0.554976 -0.083196 0.671087 -2.450089 -11.354331 0.000000 0.000000 0.000000 3.831878 -18.217938 -61.992566 -0.000007 -22.598400 -0.000005 0.000000 0.000000 0.000000 0.987945 0.554976 -0.083196 0.426407 7.793744 14.551525 0.000000 0.000000 0.000000 6.731387 10.282453 59.960612 -0.000005 25.166867 0.000019 0.000000 0.000000 0.000000 
0.019336 96.025391 -1.275017 0.000000 0.000000 0.000000 0.449736 -0.774002 0.323671 -9.326245 12.704900 7.938141 12.842121 -9.377625 0.911547 -4.991173 0.334639 -6.666222 -0.447913 0.000001 0.000001 0.000000 0.000000 0.000000 0.449736 -0.774002 0.323671 -7.544345 -9.663290 -12.308074 10.685228 6.198273 2.477076 -4.648149 -0.633002 7.793966 -0.000000 0.000001 0.000001 0.000000 0.000000 0.000000 0.449736 -0.774002 0.323671 0.610868 0.663664 0.541543 0.980517 0.607874 -0.063871 0.000000 0.000000 0.000000 0.000000 0.000000 0.000000 0.981024 0.608908 -0.054973 1.943202 -0.973705 -0.731148 -7.084656 -6.742598 2.888064 0.000000 0.000000 0.000000 0.981024 0.608908 -0.054973 0.657627 -2.243741 -10.815323 0.000000 0.000000 0.000000 0.915711 -18.654934 -61.320830 0.000003 -24.449874 0.000013 0.000000 0.000000 0.000000 0.981024 0.608908 -0.054973 0.429737 7.719691 14.670213 0.000000 0.000000 0.000000 5.866561 10.717024 58.540773 -0.000003 28.123456 -0.000004 0.000000 0.000000 0.000000 
0.100919 95.233177 -2.084068 0.000000 0.000000 0.000000 1.864977 -0.653750 -0.181815 -12.935177 11.065115 8.589299 15.904398 -8.501008 1.355529 -5.831864 0.439153 -7.219516 -0.058472 -0.000003 -0.000003 0.000000 0.000000 0.000000 1.864977 -0.653750 -0.181815 -10.656871 -9.368859 -11.939087 12.891538 6.183284 2.315896 -5.031772 -0.677809 7.752389 0.012171 -0.000002 0.008877 0.000000 0.000000 0.000000 1.864977 -0.653750 -0.181815 0.598247 0.833525 1.064141 1.011170 0.786450 0.009448 0.000000 0.000000 0.000000 0.000000 0.000000 0.000000 1.011393 0.787397 0.017667 1.488731 -0.939992 -0.731099 -9.084092 -6.536147 2.688178 0.000000 0.000000 0.000000 1.011393 0.787397 0.017667 0.685933 -2.226723 -10.294835 0.000000 0.000000 0.000000 -2.552053 -18.217870 -60.016148 0.000004 -31.850767 -0.000009 0.000000 0.000000 0.000000 1.011393 0.787397 0.017667 0.461277 7.616655 14.254980 0.000000 0.000000 0.000000 3.748783 11.962922 56.087164 0.000011 34.424642 -0.000030 0.000000 0.000000 0.000000 
0.070673 92.951210 -3.402641 0.000000 0.000000 0.000000 3.947590 -0.579991 -0.345308 -19.299499 8.825229 9.415235 22.367198 -7.554492 1.447719 -7.874747 0.718111 -7.635875 0.023773 -0.000071 0.054272 0.000000 0.000000 0.000000 3.947590 -0.579991 -0.345308 -17.464066 -8.521695 -11.999311 20.080244 6.579104 1.810369 -7.412238 -0.835327 6.492396 0.247050 -0.000244 0.178464 0.000000 0.000000 0.000000 3.947590 -0.579991 -0.345308 0.757533 1.006105 1.331219 1.206394 1.008382 -0.000788 0.000000 0.000000 0.000000 0.000000 0.000000 0.000000 1.205761 1.010495 -0.000468 0.358478 -0.875334 -0.768115 -11.936008 -6.229148 2.581919 0.000000 0.000000 0.000000 1.205761 1.010495 -0.000468 0.740215 -2.156131 -10.150303 0.000000 0.000000 0.000000 -8.573557 -17.516520 -58.982659 -0.000010 -42.667710 -0.000010 0.000000 0.000000 0.000000 1.205761 1.010495 -0.000468 0.500803 7.552856 13.547271 0.000000 0.000000 0.000000 -0.406566 13.818761 52.393329 0.000016 43.577071 -0.000031 0.000000 0.000000 0.000000 
-0.019346 89.719711 -4.878777 0.000000 0.000000 0.000000 6.419107 -0.542038 -0.269252 -26.924809 6.747218 10.267338 30.094025 -6.856317 1.121633 -10.268461 1.055542 -7.772033 0.022368 -0.000061 0.051106 0.000000 0.000000 0.000000 6.419107 -0.542038 -0.269252 -25.595251 -7.881988 -12.824718 28.267231 7.476346 1.604078 -9.984219 -0.917528 6.093306 0.240716 -0.000231 0.173845 0.000000 0.000000 0.000000 6.419107 -0.542038 -0.269252 1.080090 1.084581 1.264890 1.523300 1.134779 -0.076936 0.000000 0.000000 0.000000 0.000000 0.000000 0.000000 1.521102 1.138434 -0.089885 -1.103084 -0.797271 -0.718120 -15.470064 -5.849631 2.744155 0.000000 0.000000 0.000000 1.521102 1.138434 -0.089885 0.757205 -2.243485 -9.554379 0.000000 0.000000 0.000000 -17.580980 -17.053292 -59.125095 0.000008 -52.773282 0.000020 0.000000 0.000000 0.000000 1.521102 1.138434 -0.089885 0.527226 7.513112 12.884910 0.000000 0.000000 0.000000 -7.418224 15.933204 48.326057 0.000024 52.919179 -0.000033 0.000000 0.000000 0.000000 
-0.220272 86.174149 -6.249920 0.000000 0.000000 0.000000 9.305154 -0.540012 -0.192918 -34.906915 4.858422 11.122962 37.530076 -6.345290 0.665462 -12.416518 1.378419 -7.661710 -0.101047 -0.000002 0.000001 0.000000 0.000000 0.000000 9.305154 -0.540012 -0.192918 -33.878503 -7.388526 -14.017122 35.704274 8.418876 1.761826 -12.078931 -0.951600 6.552016 -0.000088 -0.000001 0.000002 0.000000 0.000000 0.000000 9.305154 -0.540012 -0.192918 1.180152 1.103857 0.994837 1.640094 1.251965 -0.081579 0.000000 0.000000 0.000000 0.000000 0.000000 0.000000 1.637290 1.255639 -0.106111 -2.180788 -0.736615 -0.538903 -18.441842 -5.406078 2.866758 0.000000 0.000000 0.000000 1.637290 1.255639 -0.106111 0.753476 -3.173323 -8.775344 0.000000 0.000000 0.000000 -27.390076 -16.444804 -59.372635 -0.000000 -60.132999 -0.000006 0.000000 0.000000 0.000000 1.637290 1.255639 -0.106111 0.511802 7.871055 12.670180 0.000000 0.000000 0.000000 -16.442009 17.996604 44.545541 -0.000037 60.293112 0.000045 0.000000 0.000000 0.000000 
-0.343432 82.472420 -7.424309 0.000000 0.000000 0.000000 12.362022 -0.627037 -0.071880 -42.766731 2.698872 11.649943 44.643336 -5.629760 0.325657 -14.444926 1.747398 -7.844421 -0.506427 -0.000006 -0.000003 0.000000 0.000000 0.000000 12.362022 -0.627037 -0.071880 -42.266092 -6.253933 -14.881577 43.241883 8.893361 1.739836 -14.195667 -1.061372 6.202730 -0.000106 0.000001 0.000000 0.000000 0.000000 0.000000 12.362022 -0.627037 -0.071880 1.045958 1.075613 0.756744 1.558743 1.375063 -0.052249 0.000000 0.000000 0.000000 0.000000 0.000000 0.000000 1.556079 1.379101 -0.086001 -2.822968 -0.636394 -0.367795 -20.039452 -4.741432 2.952452 0.000000 0.000000 0.000000 1.556079 1.379101 -0.086001 0.767081 -5.105122 -8.677048 0.000000 0.000000 0.000000 -36.444858 -15.512763 -58.665820 0.000079 -65.126721 0.000064 0.000000 0.000000 0.000000 1.556079 1.379101 -0.086001 0.445579 9.050435 13.037077 0.000000 0.000000 0.000000 -26.544086 19.762230 41.476467 -0.000043 64.973213 0.000022 0.000000 0.000000 0.000000 
